<?xml version="1.0" encoding="UTF-8" standalone="no"?>
<svg
   xmlns:dc="http://purl.org/dc/elements/1.1/"
   xmlns:cc="http://creativecommons.org/ns#"
   xmlns:rdf="http://www.w3.org/1999/02/22-rdf-syntax-ns#"
   xmlns:svg="http://www.w3.org/2000/svg"
   xmlns="http://www.w3.org/2000/svg"
   xmlns:sodipodi="http://sodipodi.sourceforge.net/DTD/sodipodi-0.dtd"
   xmlns:inkscape="http://www.inkscape.org/namespaces/inkscape"
   width="13in"
   height="7.5in"
   viewBox="0 0 13 7.5"
   version="1.1"
   preserveAspectRatio="xMidYMid meet"
   id="svg4626"
   sodipodi:docname="new box.svg"
   inkscape:version="0.92.3 (2405546, 2018-03-11)">
  <metadata
     id="metadata4632">
    <rdf:RDF>
      <cc:Work
         rdf:about="">
        <dc:format>image/svg+xml</dc:format>
        <dc:type
           rdf:resource="http://purl.org/dc/dcmitype/StillImage" />
        <dc:title />
      </cc:Work>
    </rdf:RDF>
  </metadata>
  <defs
     id="defs4630" />
  <sodipodi:namedview
     pagecolor="#ffffff"
     bordercolor="#666666"
     borderopacity="1"
     objecttolerance="10"
     gridtolerance="10"
     guidetolerance="10"
     inkscape:pageopacity="0"
     inkscape:pageshadow="2"
     inkscape:window-width="1920"
     inkscape:window-height="986"
     id="namedview4628"
     showgrid="false"
     inkscape:document-units="in"
     showguides="true"
     inkscape:guide-bbox="true"
     inkscape:snap-global="false"
     inkscape:zoom="0.88841621"
     inkscape:cx="1171.3462"
     inkscape:cy="376.51075"
     inkscape:window-x="-11"
     inkscape:window-y="-11"
     inkscape:window-maximized="1"
     inkscape:current-layer="svg4626">
    <sodipodi:guide
       position="12.803684,7.0174035"
       orientation="0,1"
       id="guide4704"
       inkscape:locked="false" />
    <sodipodi:guide
       position="-0.773849,7.5039903"
       orientation="0,1"
       id="guide4706"
       inkscape:locked="false" />
    <sodipodi:guide
       position="12.662984,5.8390425"
       orientation="0,1"
       id="guide4708"
       inkscape:locked="false" />
    <sodipodi:guide
       position="11.719122,7.73849"
       orientation="1,0"
       id="guide4710"
       inkscape:locked="false" />
    <sodipodi:guide
       position="10.376612,7.73849"
       orientation="1,0"
       id="guide4712"
       inkscape:locked="false" />
    <sodipodi:guide
       position="11.490485,0.49831186"
       orientation="0,1"
       id="guide4714"
       inkscape:locked="false" />
    <sodipodi:guide
       position="11.930172,-0.29898712"
       orientation="1,0"
       id="guide4716"
       inkscape:locked="false" />
    <sodipodi:guide
       position="11.437723,-0.40451198"
       orientation="1,0"
       id="guide4718"
       inkscape:locked="false" />
    <sodipodi:guide
       position="11.009761,6.5073666"
       orientation="1,0"
       id="guide4720"
       inkscape:locked="false" />
    <sodipodi:guide
       position="12.358134,6.8473912"
       orientation="1,0"
       id="guide4722"
       inkscape:locked="false" />
    <sodipodi:guide
       position="14.773481,5.4755679"
       orientation="0,1"
       id="guide4724"
       inkscape:locked="false" />
  </sodipodi:namedview>
  <path
     inkscape:connector-curvature="0"
     style="font-size:medium;vector-effect:non-scaling-stroke;fill:#d40000;fill-rule:evenodd;stroke:#ff0000;stroke-width:0.004;stroke-linecap:round;stroke-miterlimit:4;stroke-dasharray:none;stroke-opacity:1"
     id="front_outsideCutPath"
     d="m 7.6329652,3.5669474 v 0.81 h 0.118 v 0.502 h -0.118 v 0.501 h 0.118 v 0.502 h -0.118 v 0.501 0.309 h 0.56 v -0.118 h 0.502 v 0.118 h 0.501 v -0.118 h 0.502 v 0.118 h 0.5009998 0.059 v -0.81 h -0.118 v -0.502 h 0.118 v -0.501 h -0.118 v -0.502 h 0.118 v -0.501 -0.309 z" />
  <path
     style="font-size:medium;vector-effect:non-scaling-stroke;fill:#c83737;fill-rule:evenodd;stroke:#ff0000;stroke-width:0.004;stroke-linecap:round;stroke-miterlimit:4;stroke-dasharray:none;stroke-opacity:1"
     d="M 7.4671613,-0.09343975 V 0.71655808 H 7.5851627 V 1.2185521 H 7.4671613 V 1.7195694 H 7.5851627 V 2.2215635 H 7.4671613 v 0.500997 0.3090007 H 8.0271591 L 8.0263079,2.7845563 c -8.512e-4,-0.1290036 -0.00663,-1.0118189 -0.00441,-1.3242638 0.00255,-0.3589844 0.4034189,-0.64378222 0.7624032,-0.64122024 0.3589763,0.00256 0.7349607,0.29979164 0.7323988,0.65876804 -0.00109,0.1537964 0.012791,1.1816669 0.014127,1.3086887 l 0.00134,0.245023 h 0.5009983 0.059 V 2.2215635 H 9.9741609 V 1.7195694 H 10.092162 V 1.2185521 H 9.9741609 V 0.71655808 H 10.092162 V 0.21556101 -0.09343975 Z"
     id="path3771"
     inkscape:connector-curvature="0"
     sodipodi:nodetypes="ccccccccccccccccccccccccccccccc" />
  <path
     style="font-size:medium;vector-effect:non-scaling-stroke;fill:none;fill-rule:evenodd;stroke:#ff0000;stroke-width:0.38399988;stroke-linecap:round;stroke-opacity:1;stroke-miterlimit:4;stroke-dasharray:none"
     d="m 1049.7598,0 v 11.328125 h -42.4317 V 47.039062 H 996 v 48.19336 h 11.3281 V 143.32812 H 996 v 48.19141 h 11.3281 v 48.0957 H 996 v 48.19336 h 11.3281 V 335.9043 H 996 v 48.1914 h 11.3281 v 48.09571 H 996 v 48.19336 h 11.3281 v 48.0957 H 996 v 48.19141 h 11.3281 v 48.0957 H 996 v 48.19336 h 11.3281 v 35.71094 h 42.4317 V 720 h 48.1914 v -11.32812 h 48.0976 V 720 h 48.1914 v -11.32812 h 42.4317 V 672.96094 H 1248 v -48.19336 h -11.3281 v -48.0957 H 1248 v -48.19141 h -11.3281 v -48.0957 H 1248 v -48.19336 h -11.3281 V 384.0957 H 1248 v -48.1914 h -11.3281 V 287.80859 H 1248 v -48.19336 h -11.3281 v -48.0957 H 1248 v -48.19141 h -11.3281 V 95.232422 H 1248 v -48.19336 h -11.3281 V 11.328125 h -42.4317 V 0 h -48.1914 v 11.328125 h -48.0976 V 0 Z"
     transform="scale(0.01041667)"
     id="path3767" />
  <path
     style="font-size:medium;vector-effect:non-scaling-stroke;fill:none;fill-rule:evenodd;stroke:#ff0000;stroke-width:0.38399988;stroke-linecap:round;stroke-miterlimit:4;stroke-dasharray:none;stroke-opacity:1"
     d="m 1057.2827,-47.137025 129.1355,1.376951 c 0,0 1.0174,216.677894 1.0173,236.224914 2e-4,34.46283 -27.9375,62.40053 -62.4003,62.40039 -34.4621,-8.5e-4 -67.5722,-27.73928 -67.572,-62.20141 -2e-4,-34.46213 -0.1805,-237.800845 -0.1805,-237.800845 z"
     id="path3757"
     transform="scale(0.01041667)"
     inkscape:connector-curvature="0"
     sodipodi:nodetypes="cccccc" />
  <path
     style="font-size:medium;vector-effect:non-scaling-stroke;fill:none;fill-rule:evenodd;stroke:#ff0000;stroke-width:0.38399988;stroke-linecap:round;stroke-opacity:1;stroke-miterlimit:4;stroke-dasharray:none"
     d="m 1075.1016,613.14648 a 14.400006,14.400006 0 0 1 14.4004,14.4004 14.400006,14.400006 0 0 1 -14.4004,14.40039 14.400006,14.400006 0 0 1 -14.3985,-14.40039 14.400006,14.400006 0 0 1 14.3985,-14.4004 z"
     transform="scale(0.01041667)"
     id="path3755" />
  <path
     style="font-size:medium;vector-effect:non-scaling-stroke;fill:none;fill-rule:evenodd;stroke:#ff0000;stroke-width:0.38399988;stroke-linecap:round;stroke-opacity:1;stroke-miterlimit:4;stroke-dasharray:none"
     d="m 1171.0293,613.26562 a 14.400006,14.400006 0 0 1 14.4004,14.4004 14.400006,14.400006 0 0 1 -14.4004,14.40039 14.400006,14.400006 0 0 1 -14.4004,-14.40039 14.400006,14.400006 0 0 1 14.4004,-14.4004 z"
     transform="scale(0.01041667)"
     id="path3753" />
  <path
     style="font-size:medium;vector-effect:non-scaling-stroke;fill:none;fill-rule:evenodd;stroke:#ff0000;stroke-width:0.38399988;stroke-linecap:round;stroke-opacity:1;stroke-miterlimit:4;stroke-dasharray:none"
     d="m 1073.9766,656.625 a 14.400006,14.400006 0 0 1 14.4004,14.40039 14.400006,14.400006 0 0 1 -14.4004,14.40039 14.400006,14.400006 0 0 1 -14.4004,-14.40039 14.400006,14.400006 0 0 1 14.4004,-14.40039 z"
     transform="scale(0.01041667)"
     id="path3751" />
  <path
     style="font-size:medium;vector-effect:non-scaling-stroke;fill:none;fill-rule:evenodd;stroke:#ff0000;stroke-width:0.38399988;stroke-linecap:round;stroke-opacity:1;stroke-miterlimit:4;stroke-dasharray:none"
     d="m 1171.1484,659.89844 a 14.400006,14.400006 0 0 1 14.4004,14.40039 14.400006,14.400006 0 0 1 -14.4004,14.40039 14.400006,14.400006 0 0 1 -14.4004,-14.40039 14.400006,14.400006 0 0 1 14.4004,-14.40039 z"
     transform="scale(0.01041667)"
     id="bottom_outsideCutPath" />
</svg>
